#!OML:ASF G:\JayActor3\Patient Classification 1\Patient 1\Session 5\male.ASF
:FULLY-SPECIFIED
:DEGREES
1023
root 57.2118 15.9985 -5.84973 -137.623 -88.5334 152.071
lowerback 33.0726 -1.51191 2.47513
upperback 9.43612 -2.32051 -2.00129
thorax -6.70578 -1.47271 -2.56184
lowerneck 2.26767 1.29473 3.02918
upperneck -23.4405 1.52759 0.389825
head -7.54078 0.109556 -0.450857
rclavicle 5.1684e-015 0
rhumerus -28.5908 0.496071 -89.4773
rradius 47.1792
rwrist -2.45798
rhand -20.8282 -11.6684
rfingers 7.12502
rthumb 5.54019 -41.576
lclavicle 5.1684e-015 0
lhumerus -29.4039 -1.68856 83.8384
lradius 37.5238
lwrist 21.9525
lhand -20.6226 15.2514
lfingers 7.12502
lthumb 5.73869 45.1537
rfemur -57.7634 -0.866786 24.2803
rtibia 58.2901
rfoot 8.17575 -4.88047
rtoes 1.08921
lfemur -43.4532 8.97392 -21.2311
ltibia 80.9429
lfoot 20.3144 -10.4374
ltoes -13.5788
1024
root 57.3344 16.0148 -5.83896 -136.069 -88.5269 150.648
lowerback 33.0153 -1.54042 2.46257
upperback 9.41618 -2.35749 -2.00942
thorax -6.70835 -1.48863 -2.55194
lowerneck 2.26177 1.30069 3.01443
upperneck -23.4712 1.53717 0.412508
head -7.55016 0.111657 -0.441451
rclavicle -3.18055e-014 -3.81667e-014
rhumerus -28.5933 0.508403 -89.4597
rradius 47.322
rwrist -2.55751
rhand -20.7949 -11.651
rfingers 7.12502
rthumb 5.57235 -41.5578
lclavicle -3.18055e-014 -3.81667e-014
lhumerus -29.3788 -1.71867 83.7308
lradius 37.6197
lwrist 22.0024
lhand -20.5728 15.2626
lfingers 7.12502
lthumb 5.78683 45.1635
rfemur -57.9468 -0.704986 24.0754
rtibia 57.5286
rfoot 8.6655 -5.11664
rtoes 1.44739
lfemur -42.6036 9.08448 -21.4557
ltibia 79.5439
lfoot 20.9371 -10.0847
ltoes -11.8548
1025
root 57.4584 16.0284 -5.82794 -134.232 -88.526 148.92
lowerback 32.9827 -1.57023 2.44412
upperback 9.40189 -2.39866 -2.01674
thorax -6.71408 -1.50697 -2.53602
lowerneck 2.26852 1.30539 2.99168
upperneck -23.5118 1.54697 0.445542
head -7.56528 0.113351 -0.42738
rclavicle 2.38542e-015 1.70955e-014
rhumerus -28.5946 0.527846 -89.443
rradius 47.4535
rwrist -2.64319
rhand -20.7753 -11.6413
rfingers 7.12502
rthumb 5.59126 -41.5475
lclavicle 2.38542e-015 1.70955e-014
lhumerus -29.3455 -1.74343 83.6222
lradius 37.7005
lwrist 22.0436
lhand -20.53 15.2669
lfingers 7.12502
lthumb 5.82815 45.1667
rfemur -58.1036 -0.536193 23.8587
rtibia 56.7722
rfoot 9.10101 -5.35838
rtoes 1.76945
lfemur -41.7714 9.18402 -21.6946
ltibia 78.0533
lfoot 21.5403 -9.66942
ltoes -9.77074
1026
root 57.5839 16.039 -5.81663 -132.231 -88.5284 147
lowerback 32.9742 -1.59786 2.4202
upperback 9.39515 -2.43964 -2.02179
thorax -6.72039 -1.52574 -2.51435
lowerneck 2.2727 1.31199 2.97055
upperneck -23.5487 1.55949 0.477784
head -7.57866 0.116439 -0.414017
rclavicle -1.86858e-014 -2.50469e-014
rhumerus -28.5897 0.549324 -89.4235
rradius 47.5691
rwrist -2.71278
rhand -20.774 -11.6406
rfingers 7.12502
rthumb 5.59257 -41.5468
lclavicle -1.86858e-014 -2.50469e-014
lhumerus -29.2988 -1.76226 83.5181
lradius 37.7632
lwrist 22.0697
lhand -20.5026 15.2602
lfingers 7.12502
lthumb 5.85463 45.1593
rfemur -58.2336 -0.360743 23.6348
rtibia 56.0232
rfoot 9.48614 -5.60225
rtoes 2.01265
lfemur -40.9466 9.26718 -21.9389
ltibia 76.4625
lfoot 22.1684 -9.23036
ltoes -7.75093
1027
root 57.711 16.0462 -5.80511 -129.883 -88.5328 144.711
lowerback 32.983 -1.62251 2.39738
upperback 9.39414 -2.47782 -2.03229
thorax -6.72709 -1.54341 -2.49958
lowerneck 2.28169 1.31722 2.96886
upperneck -23.5788 1.57152 0.503686
head -7.59049 0.118594 -0.40605
rclavicle -1.59028e-015 -8.34896e-015
rhumerus -28.5866 0.550622 -89.4089
rradius 47.6702
rwrist -2.75666
rhand -20.7895 -11.6445
rfingers 7.12502
rthumb 5.57756 -41.5511
lclavicle -1.59028e-015 -8.34896e-015
lhumerus -29.2397 -1.7968 83.4137
lradius 37.8091
lwrist 22.0858
lhand -20.4986 15.2479
lfingers 7.12502
lthumb 5.85843 45.147
rfemur -58.3467 -0.180955 23.4002
rtibia 55.2872
rfoot 9.82027 -5.86006
rtoes 2.21643
lfemur -40.1306 9.32826 -22.1887
ltibia 74.7696
lfoot 22.7626 -8.80887
ltoes -5.94802
1028
root 57.8397 16.0498 -5.79327 -127.406 -88.5349 142.272
lowerback 33.003 -1.64176 2.37551
upperback 9.40145 -2.51033 -2.04625
thorax -6.72885 -1.55869 -2.49077
lowerneck 2.28791 1.31796 2.97497
upperneck -23.5955 1.57846 0.529741
head -7.59738 0.118217 -0.398999
rclavicle -2.78299e-015 -3.97569e-016
rhumerus -28.5769 0.533661 -89.3963
rradius 47.7549
rwrist -2.78074
rhand -20.8177 -11.6569
rfingers 7.12502
rthumb 5.55036 -41.5642
lclavicle -2.78299e-015 -3.97569e-016
lhumerus -29.1637 -1.83625 83.3122
lradius 37.8395
lwrist 22.0842
lhand -20.5105 15.2278
lfingers 7.12502
lthumb 5.84694 45.1271
rfemur -58.45 0.00117706 23.1606
rtibia 54.5685
rfoot 10.1105 -6.12649
rtoes 2.36305
lfemur -39.3192 9.35509 -22.4297
ltibia 72.9899
lfoot 23.1893 -8.35949
ltoes -4.76186
